<?xml version="1.0" encoding="UTF-8"?>
<svg width="16px" height="14px" viewBox="0 0 16 14" version="1.1" xmlns="http://www.w3.org/2000/svg" xmlns:xlink="http://www.w3.org/1999/xlink">
    <title>btn-nav</title>
    <defs>
        <path d="M15,6 C15.6,6 16,6.4 16,7 C16,7.6 15.6,8 15,8 L1,8 C0.4,8 0,7.6 0,7 C0,6.4 0.4,6 1,6 L15,6 Z M15,0 C15.6,0 16,0.4 16,1 C16,1.6 15.6,2 15,2 L1,2 C0.4,2 0,1.6 0,1 C0,0.4 0.4,0 1,0 L15,0 Z M15,12 C15.6,12 16,12.4 16,13 C16,13.6 15.6,14 15,14 L1,14 C0.4,14 0,13.6 0,13 C0,12.4 0.4,12 1,12 L15,12 Z" id="path-1"></path>
    </defs>
    <g id="Page-1" stroke="none" stroke-width="1" fill="none" fill-rule="evenodd">
        <g id="btn-nav">
            <g id="Mask" fill="#FFFFFF" fill-rule="nonzero">
                <path d="M15,6 C15.6,6 16,6.4 16,7 C16,7.6 15.6,8 15,8 L1,8 C0.4,8 0,7.6 0,7 C0,6.4 0.4,6 1,6 L15,6 Z M15,0 C15.6,0 16,0.4 16,1 C16,1.6 15.6,2 15,2 L1,2 C0.4,2 0,1.6 0,1 C0,0.4 0.4,0 1,0 L15,0 Z M15,12 C15.6,12 16,12.4 16,13 C16,13.6 15.6,14 15,14 L1,14 C0.4,14 0,13.6 0,13 C0,12.4 0.4,12 1,12 L15,12 Z" id="path-1"></path>
            </g>
            <g id="swatch/dynamo-blue-Clipped">
                <mask id="mask-2" fill="white">
                    <use xlink:href="#path-1"></use>
                </mask>
                <g id="path-1"></g>
                <g id="swatch/dynamo-blue" mask="url(#mask-2)">
                    <g transform="translate(0.000000, -1.000000)" id="Rectangle-Copy-2">
                        <rect id="Rectangle" fill="#FFFFFF" fill-rule="nonzero" x="0" y="0" width="16" height="16"></rect>
                    </g>
                </g>
            </g>
        </g>
    </g>
</svg>